<svg id="fb_foot_dark" xmlns="http://www.w3.org/2000/svg" width="49" height="49" viewBox="0 0 49 49">
  <path id="Path_19" data-name="Path 19" d="M291.47,508.668q-.306.05-.615.092Q291.164,508.718,291.47,508.668Zm0,0" transform="translate(-263.019 -459.987)" fill="#fff"/>
  <path id="Path_20" data-name="Path 20" d="M299.632,507.793l-.293.051Zm0,0" transform="translate(-270.692 -459.196)" fill="#fff"/>
  <path id="Path_21" data-name="Path 21" d="M278.33,510.34q-.358.04-.72.071Q277.971,510.381,278.33,510.34Zm0,0" transform="translate(-251.042 -461.499)" fill="#fff"/>
  <path id="Path_22" data-name="Path 22" d="M286.791,509.738c-.115.015-.23.03-.345.043C286.561,509.768,286.676,509.753,286.791,509.738Zm0,0" transform="translate(-259.032 -460.954)" fill="#fff"/>
  <path id="Path_23" data-name="Path 23" d="M306.923,506.41l-.259.054Zm0,0" transform="translate(-277.315 -457.945)" fill="#fff"/>
  <path id="Path_24" data-name="Path 24" d="M324.693,502.113l-.209.058Zm0,0" transform="translate(-293.43 -454.059)" fill="#fff"/>
  <path id="Path_25" data-name="Path 25" d="M319.286,503.543l-.227.059Zm0,0" transform="translate(-288.524 -455.352)" fill="#fff"/>
  <path id="Path_26" data-name="Path 26" d="M312.308,505.254l-.242.054Zm0,0" transform="translate(-282.201 -456.9)" fill="#fff"/>
  <path id="Path_27" data-name="Path 27" d="M273.867,511.09q-.193.016-.387.029Q273.674,511.106,273.867,511.09Zm0,0" transform="translate(-247.307 -462.177)" fill="#fff"/>
  <path id="Path_28" data-name="Path 28" d="M49,24.5A24.5,24.5,0,1,0,24.5,49c.144,0,.287,0,.431-.006V29.922H19.667V23.788h5.264V19.274c0-5.235,3.2-8.085,7.866-8.085a43.33,43.33,0,0,1,4.719.241V16.9H34.3c-2.541,0-3.033,1.208-3.033,2.979v3.907h6.075l-.792,6.134H31.263V48.053A24.513,24.513,0,0,0,49,24.5Zm0,0" fill="#fff"/>
  <path id="Path_29" data-name="Path 29" d="M265.658,511.43q-.382.025-.768.038Q265.276,511.455,265.658,511.43Zm0,0" transform="translate(-239.54 -462.485)" fill="#fff"/>
  <path id="Path_30" data-name="Path 30" d="M260.911,511.836q-.2.007-.407.01Q260.708,511.843,260.911,511.836Zm0,0" transform="translate(-235.573 -462.852)" fill="#fff"/>
</svg>
