<svg id="instagram" xmlns="http://www.w3.org/2000/svg" width="48.687" height="48.687" viewBox="0 0 48.687 48.687">
  <path id="Path_31" data-name="Path 31" d="M216.319,211.659A4.659,4.659,0,1,1,211.659,207,4.659,4.659,0,0,1,216.319,211.659Zm0,0" transform="translate(-187.316 -187.316)" fill="#fff"/>
  <path id="Path_32" data-name="Path 32" d="M157.842,138.7a4.629,4.629,0,0,0-2.653-2.653,7.734,7.734,0,0,0-2.6-.481c-1.474-.067-1.916-.082-5.649-.082s-4.175.014-5.649.081a7.738,7.738,0,0,0-2.6.481,4.631,4.631,0,0,0-2.653,2.653,7.737,7.737,0,0,0-.481,2.6c-.067,1.474-.082,1.916-.082,5.649s.014,4.174.082,5.649a7.734,7.734,0,0,0,.481,2.6,4.629,4.629,0,0,0,2.653,2.653,7.725,7.725,0,0,0,2.6.481c1.474.067,1.916.081,5.648.081s4.175-.014,5.649-.081a7.725,7.725,0,0,0,2.6-.481,4.629,4.629,0,0,0,2.653-2.653,7.741,7.741,0,0,0,.481-2.6c.067-1.474.081-1.916.081-5.649s-.014-4.175-.081-5.649A7.725,7.725,0,0,0,157.842,138.7Zm-10.9,15.422a7.178,7.178,0,1,1,7.178-7.178A7.178,7.178,0,0,1,146.945,154.126Zm7.462-12.962a1.677,1.677,0,1,1,1.677-1.677A1.678,1.678,0,0,1,154.406,141.164Zm0,0" transform="translate(-122.601 -122.605)" fill="#fff"/>
  <path id="Path_33" data-name="Path 33" d="M24.343,0A24.343,24.343,0,1,0,48.687,24.343,24.346,24.346,0,0,0,24.343,0ZM38.237,30.106a10.256,10.256,0,0,1-.65,3.393A7.147,7.147,0,0,1,33.5,37.588a10.263,10.263,0,0,1-3.393.65c-1.491.068-1.967.084-5.763.084s-4.272-.016-5.763-.084a10.263,10.263,0,0,1-3.393-.65A7.147,7.147,0,0,1,11.1,33.5a10.253,10.253,0,0,1-.65-3.393c-.069-1.491-.085-1.967-.085-5.763s.016-4.272.084-5.763a10.257,10.257,0,0,1,.649-3.393A7.152,7.152,0,0,1,15.187,11.1a10.265,10.265,0,0,1,3.393-.65c1.491-.068,1.967-.084,5.763-.084s4.272.016,5.763.085A10.267,10.267,0,0,1,33.5,11.1a7.149,7.149,0,0,1,4.088,4.089,10.255,10.255,0,0,1,.65,3.393c.068,1.491.084,1.967.084,5.763S38.306,28.616,38.237,30.106Zm0,0" fill="#fff"/>
</svg>
