<svg xmlns="http://www.w3.org/2000/svg" width="48.775" height="48.775" viewBox="0 0 48.775 48.775">
  <path id="twitter" d="M24.387,0A24.387,24.387,0,1,0,48.775,24.387,24.39,24.39,0,0,0,24.387,0ZM35.523,19.015q.016.36.016.723A15.818,15.818,0,0,1,19.612,35.665h0a15.844,15.844,0,0,1-8.58-2.514,11.385,11.385,0,0,0,1.335.077,11.232,11.232,0,0,0,6.952-2.4,5.6,5.6,0,0,1-5.229-3.888,5.579,5.579,0,0,0,2.528-.1,5.6,5.6,0,0,1-4.491-5.487c0-.025,0-.048,0-.071a5.559,5.559,0,0,0,2.535.7,5.6,5.6,0,0,1-1.733-7.473,15.892,15.892,0,0,0,11.538,5.849,5.6,5.6,0,0,1,9.539-5.1A11.227,11.227,0,0,0,37.562,13.9,5.619,5.619,0,0,1,35.1,17a11.164,11.164,0,0,0,3.214-.882,11.376,11.376,0,0,1-2.792,2.9Zm0,0" fill="#fff"/>
</svg>
